<?xml version="1.0" encoding="UTF-8"?>
<svg xmlns="http://www.w3.org/2000/svg"
     xmlns:xlink="http://www.w3.org/1999/xlink"
     id="cometd_logo"
     version="1.0"
     height="68"
     width="68">
   
  <defs id="defs1">
    <linearGradient id="linearGradient1"
                    gradientTransform="matrix(0,-56.5517,-60.7358,0,236.864,255.784)"
                    gradientUnits="userSpaceOnUse"
                    spreadMethod="pad"
                    x1="0"
                    y1="0"
                    x2="1"
                    y2="0">
      <stop id="stop1"
            offset="0"
            style="stop-opacity:1;stop-color:#91272e" />
      <stop id="stop2"
            offset="0.08"
            style="stop-opacity:1;stop-color:#710b0e" />
      <stop id="stop3"
            offset="0.41"
            style="stop-opacity:1;stop-color:#ed1c24" />
      <stop id="stop4"
            offset="1"
            style="stop-opacity:1;stop-color:#fbc707" />
    </linearGradient>
    <linearGradient id="linearGradient2"
                    gradientTransform="matrix(0.13605349,0,0,-0.12647499,-251.49307,319.42042)"
		    gradientUnits="userSpaceOnUse"
		    x1="2098.5293"
		    y1="2525.6565"
		    x2="2095.248"
		    y2="1985.5803"
                    xlink:href="#linearGradient1" />
  </defs>
  <path id="path1"
        d="M 35.72129,67.907196 C 24.945853,59.529493 17.403048,47.054 22.398932,35.853374 25.337687,28.022043 34.545787,24.288501 41.109008,16.092922 48.162021,7.0777847 43.851846,1.4319411 34.447829,1.3408791 48.455896,-3.5764685 56.684411,4.8012349 52.668112,16.639294 c -3.232631,9.652571 -13.322357,13.0206 -15.869279,19.851514 9.795851,-1.183806 15.575404,3.18717 14.595819,11.382749 -9.404018,-7.193897 -21.354956,0 -15.673362,20.033639 l 0,0 z M 40.521257,13.27 C 31.117239,21.283456 13.484707,21.738766 10.154118,34.214259 6.1378187,49.057363 19.558135,59.801414 32.292742,67.269762 27.688691,63.08091 21.125471,57.981439 19.166301,49.512673 14.366334,28.385026 33.468244,26.109741 40.521257,13.27 l 0,0 z M 27.688691,66.359142 C 8.880657,56.706571 3.6888558,43.320458 8.9786155,28.022043 -9.1437093,46.871876 1.9256026,60.80436 27.688691,66.359142 l 0,0 z M 10.937786,27.475671 C 21.909139,19.18903 13.386749,15.910798 14.954085,10.173892 7.9010719,15.819736 13.778583,21.738766 10.937786,27.475671 l 0,0 z m 29.583471,7.376021 c 7.346888,-3.733541 15.575403,2.458674 22.334541,-5.919029 -7.346889,2.093161 -12.244815,-7.286224 -22.334541,5.919029 l 0,0 z m 9.404017,-8.741951 c 5.779552,-3.551418 13.126441,1.183806 18.122325,-6.192215 -5.97547,2.185488 -10.677478,-5.372658 -18.122325,6.192215"
        style="fill:url(#linearGradient2)" />
</svg>
